<svg width="1073" height="1280" xmlns="http://www.w3.org/2000/svg" preserveAspectRatio="xMidYMid meet">
 <metadata>Created by potrace 1.15, written by Peter Selinger 2001-2017</metadata>

 <g>
  <title>background</title>
  <rect fill="none" id="canvas_background" height="402" width="582" y="-1" x="-1"/>
 </g>
 <g>
  <title>Layer 1</title>
  <g id="svg_1" fill="#000000" transform="translate(0,1280) scale(0.10000000149011612,-0.10000000149011612) ">
   <path fill="#ffffff" id="svg_2" d="m4710,12759c-936,-37 -1829,-151 -2810,-359c-539,-115 -1013,-237 -1787,-462c-18,-5 -33,-15 -33,-23c0,-8 -7,-18 -16,-23c-26,-15 -44,-373 -51,-1012c-7,-734 10,-1143 72,-1764c269,-2657 1232,-5015 2824,-6916c445,-532 1009,-1090 1561,-1546c256,-212 796,-615 858,-641c52,-22 87,-5 306,154c1941,1409 3345,3233 4194,5450c80,207 222,624 282,823c17,58 35,116 39,130c5,14 14,45 21,70c7,25 17,59 21,75c226,782 392,1699 474,2615c62,698 72,1678 25,2429c-5,85 -11,155 -13,157c-6,6 -533,147 -817,219c-1915,481 -3597,685 -5150,624zm5957,-1011c-2,-18 -4,-6 -4,27c0,33 2,48 4,33c2,-15 2,-42 0,-60zm10,-155c-2,-21 -4,-6 -4,32c0,39 2,55 4,38c2,-18 2,-50 0,-70zm10,-225c-2,-24 -4,-7 -4,37c0,44 2,63 4,43c2,-21 2,-57 0,-80zm10,-310c-1,-40 -3,-8 -3,72c0,80 2,112 3,73c2,-40 2,-106 0,-145zm0,-670c-3,-8 -6,-5 -6,6c-1,11 2,17 5,13c3,-3 4,-12 1,-19zm0,-235c-1,-43 -3,-10 -3,72c0,83 2,118 3,78c2,-40 2,-107 0,-150zm-10,-220c-2,-21 -4,-6 -4,32c0,39 2,55 4,38c2,-18 2,-50 0,-70zm-10,-210c-2,-21 -4,-6 -4,32c0,39 2,55 4,38c2,-18 2,-50 0,-70zm-10,-130c-2,-16 -4,-5 -4,22c0,28 2,40 4,28c2,-13 2,-35 0,-50zm-10,-155c-2,-18 -4,-6 -4,27c0,33 2,48 4,33c2,-15 2,-42 0,-60zm-10,-100c-2,-13 -4,-5 -4,17c-1,22 1,32 4,23c2,-10 2,-28 0,-40zm-10,-130c-2,-13 -4,-3 -4,22c0,25 2,35 4,23c2,-13 2,-33 0,-45zm-10,-95c-3,-10 -5,-2 -5,17c0,19 2,27 5,18c2,-10 2,-26 0,-35zm-10,-110c-3,-10 -5,-2 -5,17c0,19 2,27 5,18c2,-10 2,-26 0,-35zm-10,-70c-3,-10 -5,-4 -5,12c0,17 2,24 5,18c2,-7 2,-21 0,-30zm-10,-100c-3,-10 -5,-4 -5,12c0,17 2,24 5,18c2,-7 2,-21 0,-30zm-10,-65c-3,-7 -5,-2 -5,12c0,14 2,19 5,13c2,-7 2,-19 0,-25zm-10,-95c-3,-10 -5,-4 -5,12c0,17 2,24 5,18c2,-7 2,-21 0,-30zm-10,-65c-3,-7 -5,-2 -5,12c0,14 2,19 5,13c2,-7 2,-19 0,-25zm-20,-140c-3,-7 -5,-2 -5,12c0,14 2,19 5,13c2,-7 2,-19 0,-25zm-20,-130c-3,-7 -5,-2 -5,12c0,14 2,19 5,13c2,-7 2,-19 0,-25zm-20,-120c-3,-8 -6,-5 -6,6c-1,11 2,17 5,13c3,-3 4,-12 1,-19zm-20,-120c-3,-8 -6,-5 -6,6c-1,11 2,17 5,13c3,-3 4,-12 1,-19zm-20,-110c-3,-8 -6,-5 -6,6c-1,11 2,17 5,13c3,-3 4,-12 1,-19z"/>
  </g>
  <metadata transform="matrix(0.03999999523162856,0,0,0.03999999523162856,0,0) ">Created by potrace 1.15, written by Peter Selinger 2001-2017</metadata>
  <path stroke="null" id="svg_8" d="m504.799623,310.613535c-43.080537,6.803137 -82.500636,23.631948 -108.686845,46.189717c-19.71005,17.007841 -39.420099,46.010687 -48.008049,70.537784c-12.107602,34.194713 -14.360179,50.128375 -19.428477,137.674l-2.111791,34.015683l-14.641751,39.38658c-8.024806,21.483589 -15.486468,42.072029 -16.47197,45.473597c-0.985502,3.401568 -3.94201,10.025675 -6.616945,14.501423c-2.534149,4.654778 -4.64594,10.025675 -4.64594,11.995004c0,6.803137 7.88402,15.933662 18.724547,21.662619c35.337303,18.619111 112.769641,34.194713 171.477431,34.194713c20.836338,0 35.196517,-5.012837 56.173641,-19.33523c28.861144,-19.69329 38.856955,-25.601277 48.571194,-28.286726c7.320876,-1.969329 23.933632,-3.222538 64.057661,-4.296718c96.297671,-2.685449 167.816993,-16.291722 183.585033,-34.910832c4.64594,-5.370897 4.786726,-12.353064 0.281572,-17.544931c-1.830219,-2.327389 -8.447164,-6.624107 -14.641751,-9.846645c-12.248388,-6.445077 -18.020617,-12.890153 -26.045423,-29.181875c-8.165592,-16.291722 -9.432667,-22.199709 -12.952318,-61.586289c-4.364368,-48.517105 -7.180089,-69.105545 -12.248388,-92.200403c-8.447164,-38.84949 -23.652059,-70.358754 -47.444905,-98.82451c-19.991622,-23.810978 -40.264816,-36.522101 -77.995482,-48.875165c-32.803154,-10.562765 -42.23582,-11.995004 -80.529631,-12.711124c-24.074418,-0.35806 -39.983243,0.17903 -50.401412,1.969329z"/>
 </g>
</svg>