<svg width="846" height="1280" xmlns="http://www.w3.org/2000/svg" preserveAspectRatio="xMidYMid meet">
 <metadata>Created by potrace 1.15, written by Peter Selinger 2001-2017</metadata>

 <g>
  <title>background</title>
  <rect fill="none" id="canvas_background" height="1282" width="848" y="-1" x="-1"/>
 </g>
 <g>
  <title>Layer 1</title>
  <g id="svg_1" fill="#000000" transform="translate(0,1280) scale(0.10000000149011612,-0.10000000149011612) ">
   <path fill="#5788a8" id="svg_2" d="m1086.553448,12639.222246c-311,-842 -503,-1756 -591,-2812c-20,-249 -40,-584 -40,-692l0,-63l705,0l705,0l-4,38c-3,20 -8,116 -11,212c-28,865 -186,1889 -415,2687c-85,294 -262,803 -279,803c-3,0 -35,-78 -70,-173z"/>
   <path fill="#5788a8" id="svg_3" d="m439.553448,9005.222246c17,-115 19,-153 7,-153c-8,0 -11,-81 -11,-295l0,-295l-135,-451l-135,-450l0,-3515l0,-3514l110,0l111,0l-3,-77l-3,-78l-107,-3l-108,-3l0,-74l0,-75l980,0l980,0l0,75l0,74l-107,3l-108,3l-3,78l-3,77l111,0l110,0l0,3519l0,3518l-135,449l-135,448l-1,393l-1,393l-710,0l-711,0l7,-47z"/>
  </g>
  <g id="svg_6" fill="#000000" transform="translate(0,1280) scale(0.10000000149011612,-0.10000000149011612) ">
   <path fill="#5788a8" id="svg_4" d="m3153.222293,12617c-311,-842 -503,-1756 -591,-2812c-20,-249 -40,-584 -40,-692l0,-63l705,0l705,0l-4,38c-3,20 -8,116 -11,212c-28,865 -186,1889 -415,2687c-85,294 -262,803 -279,803c-3,0 -35,-78 -70,-173z"/>
   <path fill="#5788a8" id="svg_5" d="m2506.222293,8983c17,-115 19,-153 7,-153c-8,0 -11,-81 -11,-295l0,-295l-135,-451l-135,-450l0,-3515l0,-3514l110,0l111,0l-3,-77l-3,-78l-107,-3l-108,-3l0,-74l0,-75l980,0l980,0l0,75l0,74l-107,3l-108,3l-3,78l-3,77l111,0l110,0l0,3519l0,3518l-135,449l-135,448l-1,393l-1,393l-710,0l-711,0l7,-47z"/>
  </g>
  <g id="svg_9" fill="#000000" transform="translate(0,1280) scale(0.10000000149011612,-0.10000000149011612) ">
   <path fill="#5788a8" id="svg_7" d="m5264.335575,12661.44449c-311,-842 -503,-1756 -591,-2812c-20,-249 -40,-584 -40,-692l0,-63l705,0l705,0l-4,38c-3,20 -8,116 -11,212c-28,865 -186,1889 -415,2687c-85,294 -262,803 -279,803c-3,0 -35,-78 -70,-173z"/>
   <path fill="#5788a8" id="svg_8" d="m4617.335575,9027.44449c17,-115 19,-153 7,-153c-8,0 -11,-81 -11,-295l0,-295l-135,-451l-135,-450l0,-3515l0,-3514l110,0l111,0l-3,-77l-3,-78l-107,-3l-108,-3l0,-74l0,-75l980,0l980,0l0,75l0,74l-107,3l-108,3l-3,78l-3,77l111,0l110,0l0,3519l0,3518l-135,449l-135,448l-1,393l-1,393l-710,0l-711,0l7,-47z"/>
  </g>
  <g id="svg_12" fill="#000000" transform="translate(0,1280) scale(0.10000000149011612,-0.10000000149011612) ">
   <path fill="#5788a8" id="svg_10" d="m7308.782191,12661.444486c-311,-842 -503,-1756 -591,-2812c-20,-249 -40,-584 -40,-692l0,-63l705,0l705,0l-4,38c-3,20 -8,116 -11,212c-28,865 -186,1889 -415,2687c-85,294 -262,803 -279,803c-3,0 -35,-78 -70,-173z"/>
   <path fill="#5788a8" id="svg_11" d="m6661.782191,9027.444486c17,-115 19,-153 7,-153c-8,0 -11,-81 -11,-295l0,-295l-135,-451l-135,-450l0,-3515l0,-3514l110,0l111,0l-3,-77l-3,-78l-107,-3l-108,-3l0,-74l0,-75l980,0l980,0l0,75l0,74l-107,3l-108,3l-3,78l-3,77l111,0l110,0l0,3519l0,3518l-135,449l-135,448l-1,393l-1,393l-710,0l-711,0l7,-47z"/>
  </g>
 </g>
</svg>