<svg width="1280" height="1275" xmlns="http://www.w3.org/2000/svg" preserveAspectRatio="xMidYMid meet">
 <metadata>Created by potrace 1.15, written by Peter Selinger 2001-2017</metadata>

 <g>
  <title>background</title>
  <rect fill="none" id="canvas_background" height="402" width="582" y="-1" x="-1"/>
 </g>
 <g>
  <title>Layer 1</title>
  <g id="svg_1" fill="#000000" transform="translate(0,1275) scale(0.10000000149011612,-0.10000000149011612) ">
   <path fill="#ffffff" id="svg_2" d="m6795,12737c-77,-5 -444,-10 -815,-11c-577,-2 -690,-4 -775,-19c-397,-66 -622,-203 -750,-457c-120,-239 -157,-653 -118,-1340c12,-216 17,-556 20,-1403l5,-1119l-1634,2c-1709,3 -1739,2 -1953,-41c-457,-92 -690,-334 -735,-764c-5,-49 -10,-171 -10,-270c0,-99 -7,-407 -16,-685c-22,-677 -15,-1061 26,-1527c18,-194 77,-337 190,-457c191,-203 463,-296 956,-328c182,-12 307,-9 1214,23c482,17 1281,23 1485,10c309,-19 458,-51 470,-103c3,-13 6,-723 8,-1578c3,-1365 5,-1568 20,-1665c78,-537 257,-799 633,-924c189,-64 164,-62 1354,-71c714,-5 1123,-5 1195,2c567,52 830,386 886,1127c12,157 5,618 -12,821c-6,63 -15,567 -20,1120c-6,553 -11,1039 -12,1081c-2,94 11,121 72,151l46,23l1685,1c1260,1 1708,4 1775,13c152,21 296,76 400,154c145,109 238,239 294,407c44,135 52,218 61,625c5,215 16,485 24,600c52,729 45,1131 -25,1454c-27,124 -86,292 -133,375c-98,176 -249,306 -422,367c-163,56 -40,52 -1929,58c-1595,6 -1743,7 -1777,23c-68,31 -74,51 -68,233c3,88 5,844 5,1680c0,1602 0,1593 -46,1772c-40,159 -143,321 -267,419c-241,191 -672,264 -1307,221z"/>
  </g>
 </g>
</svg>